# xmcd CD database file
#
# Track frame offsets:
#	150
#	39882
#	55222
#	80930
#	103259
#	122442
#	151875
#	165435
#	185328
#	206380
#	225395
#	245762
#
# Disc length: 3539 seconds
#
# Revision: 0
# Processed by: cddbd v1.5.2PL0 Copyright (c) Steve Scherf et al.
# Submitted via: CDex 1.51
#
DISCID=920dd10c
DTITLE=JOHNNY DOLLAR - Chicago Blues Session Volume 55-My Baby Loves Me
DYEAR=2001
DGENRE=Blues
TTITLE0=Call My Job
TTITLE1=I Like Your Style
TTITLE2=Doing My Own Thing
TTITLE3=Stop Doggin' Me
TTITLE4=My Baby Loves Me
TTITLE5=The Things I Used To Do
TTITLE6=That's The Way Love Is
TTITLE7=If Loving You Is Wrong(I Don't Want To Do Right)
TTITLE8=Take My Heart
TTITLE9=That's The The I Feel About CHA
TTITLE10=Scan Ius
TTITLE11=Funky Broadway
EXTD=YEAR: 2001
EXTT0=
EXTT1=
EXTT2=
EXTT3=
EXTT4=
EXTT5=
EXTT6=
EXTT7=
EXTT8=
EXTT9=
EXTT10=
EXTT11=
PLAYORDER=
